<svg width="39" height="34" viewBox="0 0 39 34" fill="none" xmlns="http://www.w3.org/2000/svg">
<path d="M37.1797 6.75L32.9297 23.75H10.5703L6.32031 6.75H37.1797Z" stroke="#CEE0BE" stroke-width="0.5"/>
<path d="M1.625 1.25H4.6875L6 6.5M6 6.5L10.375 24H33.125L37.5 6.5H6Z" stroke="#CEE0BE" stroke-width="2" stroke-linecap="round" stroke-linejoin="round"/>
<path d="M10.375 32.75C11.8247 32.75 13 31.5747 13 30.125C13 28.6753 11.8247 27.5 10.375 27.5C8.92525 27.5 7.75 28.6753 7.75 30.125C7.75 31.5747 8.92525 32.75 10.375 32.75Z" stroke="#CEE0BE" stroke-width="2" stroke-linecap="round" stroke-linejoin="round"/>
<path d="M33.125 32.75C34.5747 32.75 35.75 31.5747 35.75 30.125C35.75 28.6753 34.5747 27.5 33.125 27.5C31.6753 27.5 30.5 28.6753 30.5 30.125C30.5 31.5747 31.6753 32.75 33.125 32.75Z" stroke="#CEE0BE" stroke-width="2" stroke-linecap="round" stroke-linejoin="round"/>
</svg>
