<svg width="42" height="42" viewBox="0 0 42 42" fill="none" xmlns="http://www.w3.org/2000/svg">
<path d="M21.049 30.1525C21.4363 30.1525 21.763 30.0195 22.029 29.7535C22.295 29.4875 22.428 29.1608 22.428 28.7735C22.428 28.3862 22.2938 28.0595 22.0255 27.7935C21.7595 27.5275 21.4328 27.3945 21.0455 27.3945C20.6582 27.3945 20.3315 27.5281 20.0655 27.7952C19.7995 28.0624 19.6671 28.3891 19.6683 28.7753C19.6683 29.1626 19.8013 29.4893 20.0673 29.7553C20.3356 30.0212 20.6628 30.1543 21.049 30.1543M21.0053 36.75C18.8283 36.75 16.7808 36.337 14.8628 35.511C12.9459 34.6838 11.2782 33.5615 9.8595 32.144C8.44083 30.7265 7.31792 29.0605 6.49075 27.146C5.66358 25.2315 5.25 23.1846 5.25 21.0053C5.25 18.8259 5.66358 16.7784 6.49075 14.8628C7.31675 12.9459 8.43733 11.2782 9.8525 9.8595C11.2677 8.44083 12.9343 7.31792 14.8523 6.49075C16.7703 5.66358 18.8177 5.25 20.9947 5.25C23.1717 5.25 25.2192 5.66358 27.1372 6.49075C29.0541 7.31675 30.7218 8.43792 32.1405 9.85425C33.5592 11.2706 34.6821 12.9372 35.5093 14.854C36.3364 16.7708 36.75 18.8177 36.75 20.9947C36.75 23.1717 36.337 25.2192 35.511 27.1372C34.685 29.0553 33.5627 30.723 32.144 32.1405C30.7253 33.558 29.0593 34.6809 27.146 35.5093C25.2327 36.3376 23.1858 36.7512 21.0053 36.75ZM21 35C24.9083 35 28.2187 33.6437 30.9312 30.9312C33.6437 28.2187 35 24.9083 35 21C35 17.0917 33.6437 13.7812 30.9312 11.0687C28.2187 8.35625 24.9083 7 21 7C17.0917 7 13.7812 8.35625 11.0687 11.0687C8.35625 13.7812 7 17.0917 7 21C7 24.9083 8.35625 28.2187 11.0687 30.9312C13.7812 33.6437 17.0917 35 21 35ZM21.1085 13.5433C21.9952 13.5433 22.7582 13.818 23.3975 14.3675C24.0392 14.917 24.36 15.6047 24.36 16.4307C24.36 17.0724 24.1792 17.6523 23.8175 18.1703C23.4582 18.6883 23.0417 19.166 22.568 19.6035C21.9683 20.1472 21.4404 20.7451 20.9843 21.3973C20.5281 22.0506 20.2662 22.7698 20.1985 23.555C20.1763 23.7837 20.2481 23.975 20.4137 24.129C20.5771 24.2818 20.7696 24.3582 20.9913 24.3582C21.2257 24.3582 21.4235 24.2801 21.5845 24.1237C21.7443 23.9662 21.8458 23.7808 21.889 23.5672C22.0057 22.9781 22.2402 22.4537 22.5925 21.994C22.9437 21.5355 23.3298 21.1015 23.751 20.692C24.3565 20.09 24.8937 19.4338 25.3628 18.7233C25.8329 18.0139 26.068 17.2223 26.068 16.3485C26.068 15.064 25.5803 14.0035 24.605 13.167C23.6308 12.3317 22.4875 11.914 21.175 11.914C20.202 11.914 19.2961 12.1415 18.4572 12.5965C17.6196 13.0515 16.9493 13.6815 16.4465 14.4865C16.3322 14.6802 16.2954 14.8803 16.3363 15.0868C16.3771 15.2933 16.4879 15.4502 16.6687 15.5575C16.8997 15.6788 17.1331 15.7068 17.3688 15.6415C17.6044 15.5762 17.8121 15.4408 17.9918 15.2355C18.3802 14.7525 18.8376 14.35 19.3637 14.028C19.8887 13.7037 20.4703 13.5433 21.1085 13.5433Z" fill="#CEE0BE"/>
</svg>
