<svg width="35" height="35" viewBox="0 0 35 35" fill="none" xmlns="http://www.w3.org/2000/svg">
<path d="M25.2778 0C27.8563 0 30.3292 1.0243 32.1524 2.84757C33.9757 4.67084 35 7.14373 35 9.72222V25.2778C35 27.8563 33.9757 30.3292 32.1524 32.1524C30.3292 33.9757 27.8563 35 25.2778 35H9.72222C7.14373 35 4.67084 33.9757 2.84757 32.1524C1.0243 30.3292 0 27.8563 0 25.2778V9.72222C0 7.14373 1.0243 4.67084 2.84757 2.84757C4.67084 1.0243 7.14373 0 9.72222 0H25.2778ZM17.5 9.72222C15.4372 9.72222 13.4589 10.5417 12.0003 12.0003C10.5417 13.4589 9.72222 15.4372 9.72222 17.5C9.72222 19.5628 10.5417 21.5411 12.0003 22.9997C13.4589 24.4583 15.4372 25.2778 17.5 25.2778C19.5628 25.2778 21.5411 24.4583 22.9997 22.9997C24.4583 21.5411 25.2778 19.5628 25.2778 17.5C25.2778 15.4372 24.4583 13.4589 22.9997 12.0003C21.5411 10.5417 19.5628 9.72222 17.5 9.72222ZM17.5 13.6111C18.5314 13.6111 19.5206 14.0208 20.2499 14.7501C20.9792 15.4794 21.3889 16.4686 21.3889 17.5C21.3889 18.5314 20.9792 19.5206 20.2499 20.2499C19.5206 20.9792 18.5314 21.3889 17.5 21.3889C16.4686 21.3889 15.4794 20.9792 14.7501 20.2499C14.0208 19.5206 13.6111 18.5314 13.6111 17.5C13.6111 16.4686 14.0208 15.4794 14.7501 14.7501C15.4794 14.0208 16.4686 13.6111 17.5 13.6111ZM26.25 6.80556C25.7343 6.80556 25.2397 7.01042 24.8751 7.37507C24.5104 7.73972 24.3056 8.2343 24.3056 8.75C24.3056 9.2657 24.5104 9.76028 24.8751 10.1249C25.2397 10.4896 25.7343 10.6944 26.25 10.6944C26.7657 10.6944 27.2603 10.4896 27.6249 10.1249C27.9896 9.76028 28.1944 9.2657 28.1944 8.75C28.1944 8.2343 27.9896 7.73972 27.6249 7.37507C27.2603 7.01042 26.7657 6.80556 26.25 6.80556Z" fill="white"/>
</svg>
