<svg width="20" height="20" viewBox="0 0 20 20" fill="none" xmlns="http://www.w3.org/2000/svg">
<path d="M7.3125 14.625C5.26875 14.625 3.53925 13.917 2.124 12.501C0.708751 11.085 0.000750595 9.3555 5.95238e-07 7.3125C-0.000749405 5.2695 0.70725 3.54 2.124 2.124C3.54075 0.708 5.27025 0 7.3125 0C9.35475 0 11.0846 0.708 12.5021 2.124C13.9196 3.54 14.6273 5.2695 14.625 7.3125C14.625 8.1375 14.4938 8.91562 14.2313 9.64687C13.9688 10.3781 13.6125 11.025 13.1625 11.5875L19.4625 17.8875C19.6687 18.0938 19.7719 18.3563 19.7719 18.675C19.7719 18.9937 19.6687 19.2562 19.4625 19.4625C19.2562 19.6687 18.9937 19.7719 18.675 19.7719C18.3563 19.7719 18.0938 19.6687 17.8875 19.4625L11.5875 13.1625C11.025 13.6125 10.3781 13.9688 9.64688 14.2312C8.91563 14.4937 8.1375 14.625 7.3125 14.625ZM7.3125 12.375C8.71875 12.375 9.91425 11.883 10.899 10.899C11.8838 9.915 12.3758 8.7195 12.375 7.3125C12.3743 5.9055 11.8823 4.71038 10.899 3.72713C9.91575 2.74388 8.72025 2.2515 7.3125 2.25C5.90475 2.2485 4.70963 2.74088 3.72713 3.72713C2.74463 4.71338 2.25225 5.9085 2.25 7.3125C2.24775 8.7165 2.74013 9.912 3.72713 10.899C4.71413 11.886 5.90925 12.378 7.3125 12.375Z" fill="#606060"/>
</svg>
