<svg width="45" height="35" viewBox="0 0 45 35" fill="none" xmlns="http://www.w3.org/2000/svg">
<path d="M18 25L29.6775 17.5L18 10V25ZM44.01 5.425C44.3025 6.6 44.505 8.175 44.64 10.175C44.7975 12.175 44.865 13.9 44.865 15.4L45 17.5C45 22.975 44.64 27 44.01 29.575C43.4475 31.825 42.1425 33.275 40.1175 33.9C39.06 34.225 37.125 34.45 34.155 34.6C31.23 34.775 28.5525 34.85 26.0775 34.85L22.5 35C13.0725 35 7.2 34.6 4.8825 33.9C2.8575 33.275 1.5525 31.825 0.99 29.575C0.6975 28.4 0.495 26.825 0.36 24.825C0.2025 22.825 0.135 21.1 0.135 19.6L0 17.5C0 12.025 0.36 8 0.99 5.425C1.5525 3.175 2.8575 1.725 4.8825 1.1C5.94 0.775 7.875 0.55 10.845 0.4C13.77 0.225 16.4475 0.15 18.9225 0.15L22.5 0C31.9275 0 37.8 0.4 40.1175 1.1C42.1425 1.725 43.4475 3.175 44.01 5.425Z" fill="white"/>
</svg>
